<?xml version="1.0" encoding="UTF-8" standalone="no"?>
<!-- Created with Inkscape (http://www.inkscape.org/) -->

<svg
   version="1.1"
   id="svg1"
   width="1024"
   height="1024"
   viewBox="0 0 1024 1024"
   xmlns:xlink="http://www.w3.org/1999/xlink"
   xmlns="http://www.w3.org/2000/svg"
   xmlns:svg="http://www.w3.org/2000/svg">
  <defs
     id="defs1">
    <linearGradient
       id="linearGradient9">
      <stop
         style="stop-color:#ee573d;stop-opacity:1;"
         offset="0"
         id="stop9" />
      <stop
         style="stop-color:#ed3b1e;stop-opacity:1;"
         offset="1"
         id="stop10" />
    </linearGradient>
    <linearGradient
       xlink:href="#linearGradient9"
       id="linearGradient10"
       x1="1452.0795"
       y1="84.635414"
       x2="1550.0819"
       y2="861.11639"
       gradientUnits="userSpaceOnUse" />
  </defs>
  <g
     id="g1">
    <g
       id="g10"
       transform="translate(-1005.4144,20.27747)">
      <rect
         style="fill:url(#linearGradient10);fill-opacity:1;stroke-width:0;stroke-linecap:round;stroke-linejoin:round;-inkscape-stroke:none"
         id="rect9"
         width="854.38037"
         height="856.89319"
         x="1090.2242"
         y="63.275936"
         ry="188.91507" />
      <path
         style="fill:#5d2d13;fill-opacity:1"
         d="m 1361.691,699.90064 c -31.1955,-5.0057 -51.7299,-26.1022 -51.7746,-53.1917 -0.016,-9.9716 1.5023,-16.4043 6.1905,-26.2221 3.187,-6.6738 5.6671,-10.0677 11.9434,-16.3441 5.2381,-5.238 8.4357,-7.7239 9.4397,-7.3386 0.8356,0.3206 1.2527,0.1526 0.9274,-0.3736 -0.8644,-1.3987 12.24,-7.6946 20.6957,-9.9432 15.5875,-4.1451 28.4076,-3.5567 46.0449,2.1134 5.3643,1.7246 10.0893,2.7997 10.5,2.3893 0.4106,-0.4104 0.8797,-56.8464 1.0425,-125.41326 0.2731,-115.08 0.4269,-124.9312 2,-128.1025 0.9372,-1.8895 2.8291,-4.2298 4.2041,-5.2008 1.4097,-0.9954 20.8173,-6.1776 44.5,-11.8823 90.7967,-21.8713 102.1169,-24.6172 131.5284,-31.9042 30.5852,-7.5779 34.0485,-7.6968 37.3652,-1.283 1.9214,3.7156 2.5341,44.3457 2.7101,179.7058 0.154,118.44896 0.4985,111.64946 -6.3566,125.49996 -2.2262,4.4979 -5.8398,9.1336 -11.7321,15.0505 -7.0729,7.1024 -10.124,9.3421 -18.015,13.2246 -15.6925,7.7209 -30.8681,10.088 -46.8684,7.3104 -23.8012,-4.1316 -41.905,-17.6536 -48.8298,-36.4716 -2.4373,-6.6235 -2.7922,-8.9798 -2.7278,-18.1139 0.088,-12.5025 2.2632,-19.8468 8.8673,-29.9406 8.1548,-12.464 18.5055,-20.9229 32.0265,-26.17306 15.8502,-6.1547 35.0351,-6.5077 51.0322,-0.9391 4.95,1.72306 10.0339,3.39636 11.2976,3.71846 l 2.2977,0.5857 -0.1982,-69.37566 c -0.109,-38.1567 -0.4679,-71.8507 -0.7976,-74.8757 -0.5621,-5.1572 -0.7553,-5.4798 -3.0995,-5.1764 -9.2827,1.2019 -157.2566,38.0272 -158.6393,39.4796 -0.8306,0.8725 -1.3258,32.3612 -1.8275,116.19676 -0.5451,91.0937 -0.9713,116.3512 -2.0504,121.5 -7.1969,34.3396 -44.0052,57.5388 -81.6964,51.4909 z m 60.9427,-160.0951 c -0.3322,-0.3323 -1.1947,-0.3678 -1.9166,-0.079 -0.7978,0.3192 -0.5608,0.5562 0.6041,0.6042 1.0542,0.043 1.6448,-0.193 1.3125,-0.5253 z m 212.2709,-3.3958 c 0.825,-0.5332 1.05,-0.9694 0.5,-0.9694 -0.55,0 -1.675,0.4362 -2.5,0.9694 -0.825,0.5331 -1.05,0.9693 -0.5,0.9693 0.55,0 1.675,-0.4362 2.5,-0.9693 z m -3.6184,-51.55196 c 0.3415,-0.8899 0.1738,-1.2913 -0.393,-0.9409 -0.5437,0.336 -0.9886,1.0344 -0.9886,1.5519 0,1.4384 0.7168,1.1215 1.3816,-0.611 z m -211.5747,-67.9745 c -0.3079,-0.3079 -0.8671,0.2471 -1.2426,1.2333 -0.5427,1.4252 -0.4278,1.5401 0.5598,0.5598 0.6834,-0.6783 0.9907,-1.4852 0.6828,-1.7931 z m 51.1931,-18.9145 c 0,-0.2425 -0.45,-0.7191 -1,-1.059 -0.55,-0.3399 -1,-0.1415 -1,0.441 0,0.5824 0.45,1.059 1,1.059 0.55,0 1,-0.1985 1,-0.441 z m 165.1241,-29.8257 c -0.9876,-0.9803 -1.1025,-0.8654 -0.5598,0.5598 0.3755,0.9862 0.9347,1.5412 1.2426,1.2333 0.3079,-0.3079 6e-4,-1.1148 -0.6828,-1.7931 z m -184.5976,-28.5402 c -0.3079,-0.3079 -1.1148,-6e-4 -1.7932,0.6828 -0.9802,0.9876 -0.8654,1.1025 0.5598,0.5598 0.9863,-0.3755 1.5413,-0.9347 1.2334,-1.2426 z m 18.4735,-10.1931 c 0,-0.55 -0.4766,-1 -1.059,-1 -0.5825,0 -0.7809,0.45 -0.441,1 0.3399,0.55 0.8165,1 1.059,1 0.2426,0 0.441,-0.45 0.441,-1 z m -5.2708,-0.6042 c -0.3323,-0.3323 -1.1948,-0.3678 -1.9167,-0.079 -0.7977,0.3192 -0.5608,0.5562 0.6042,0.6042 1.0541,0.043 1.6448,-0.193 1.3125,-0.5253 z m 7,-7 c -0.3323,-0.3323 -1.1948,-0.3678 -1.9167,-0.079 -0.7977,0.3192 -0.5608,0.5562 0.6042,0.6042 1.0541,0.043 1.6448,-0.193 1.3125,-0.5253 z m 161.3949,-6.6625 c -0.9876,-0.9803 -1.1025,-0.8654 -0.5598,0.5598 0.3755,0.9862 0.9347,1.5412 1.2426,1.2333 0.3079,-0.3079 6e-4,-1.1148 -0.6828,-1.7931 z m -86.779,-11.2765 c -0.3257,-0.8487 -0.8066,-1.3286 -1.0688,-1.0665 -0.2621,0.2621 -0.1799,0.9566 0.1826,1.5431 0.986,1.5955 1.5624,1.2856 0.8862,-0.4766 z m 22.6549,-5.4568 c 0,-0.55 -0.7875,-0.9931 -1.75,-0.9847 -1.4955,0.013 -1.5319,0.1562 -0.25,0.9847 1.8872,1.2196 2,1.2196 2,0 z m 47,-2 c 0,-0.55 -0.4766,-1 -1.059,-1 -0.5825,0 -0.7809,0.45 -0.441,1 0.3399,0.55 0.8165,1 1.059,1 0.2426,0 0.441,-0.45 0.441,-1 z M 1288.765,614.71854 c -5.2874,-3.2812 -12.6408,-22.6899 -14.7604,-38.959 -1.8937,-14.5354 -2.095,-20.5003 -1.0818,-32.0576 1.3268,-15.1345 3.2553,-24.1157 8.1251,-37.83806 4.1766,-11.7692 12.8632,-28.129 14.7165,-27.7161 0.5875,0.1309 0.8612,-0.3191 0.6083,-1 -0.9215,-2.4804 12.8165,-18.8034 24.8625,-29.5408 7.136,-6.3609 11.0888,-6.9317 15.7463,-2.2741 2.3929,2.3928 2.9231,3.7668 2.9231,7.5743 0,4.4974 -0.2512,4.8884 -7.5997,11.8269 -14.6892,13.8696 -27.8117,34.0596 -33.7478,51.9235 -9.3755,28.21396 -8.2329,59.81016 2.9641,81.96886 3.3131,6.5566 3.1453,11.1752 -0.5397,14.8602 -3.3795,3.3796 -8.0041,3.8459 -12.2165,1.2319 z m 7.1396,-24.3088 c 0,-0.55 -0.4766,-1 -1.059,-1 -0.5825,0 -0.7809,0.45 -0.441,1 0.3399,0.55 0.8165,1 1.059,1 0.2426,0 0.441,-0.45 0.441,-1 z m -9.3169,-25.1875 c -0.3192,-0.7978 -0.5562,-0.5608 -0.6041,0.6041 -0.043,1.0542 0.1929,1.6448 0.5252,1.3125 0.3323,-0.3322 0.3678,-1.1948 0.079,-1.9166 z m 0.3169,-58.25346 c 0,-0.2425 -0.45,-0.7191 -1,-1.059 -0.55,-0.3399 -1,-0.1415 -1,0.441 0,0.5824 0.45,1.059 1,1.059 0.55,0 1,-0.1985 1,-0.441 z m 410,74.16826 c -1.375,-0.6837 -3.2781,-2.8298 -4.2291,-4.769 -2.8756,-5.864 -1.2358,-9.1267 9.6657,-19.2317 20.0704,-18.6038 32.1878,-39.63436 38.1584,-66.22656 2.4615,-10.9633 2.9575,-33.1508 1.0152,-45.414 -4.5025,-28.4272 -16.5709,-49.3614 -43.8602,-76.0812 -5.5909,-5.4742 -6.75,-7.1668 -6.75,-9.8566 0,-8.8637 7.2943,-13.662 14.7997,-9.7355 4.3446,2.273 23.4904,22.3089 22.6371,23.6896 -0.4498,0.7277 -0.3252,0.9467 0.3138,0.5518 0.5897,-0.3644 3.3188,2.3927 6.1545,6.2178 5.1561,6.9553 6.1156,8.8335 3.8449,7.5268 -0.7262,-0.418 -0.9008,-0.3379 -0.4167,0.1909 0.4584,0.5007 1.3177,0.9104 1.9097,0.9104 1.8298,0 11.487,19.4184 15.1681,30.4997 4.7633,14.3392 6.7069,25.9231 7.1309,42.5003 0.5192,20.3037 -2.1758,36.5723 -9.155,55.2637 -7.46,19.97926 -16.4632,34.00046 -32.1325,50.04176 -14.3563,14.6971 -18.2272,16.919 -24.2545,13.9218 z m 50,-124.72726 c 0,-0.55 -0.1984,-1 -0.441,-1 -0.2425,0 -0.7191,0.45 -1.059,1 -0.3399,0.55 -0.1415,1 0.441,1 0.5824,0 1.059,-0.45 1.059,-1 z m -9.6549,-46.5432 c -0.3257,-0.8487 -0.8066,-1.3286 -1.0688,-1.0665 -0.2621,0.2621 -0.1799,0.9566 0.1826,1.5431 0.986,1.5955 1.5624,1.2856 0.8862,-0.4766 z m -409.3364,163.70576 c -3.628,-3.6281 -4.438,-8.8397 -3.7358,-24.0367 0.6096,-13.1914 3.6746,-23.9753 10.0591,-35.39176 8.0639,-14.4198 21.2084,-28.7341 26.3856,-28.7341 3.2378,0 7.6098,2.6612 6.7248,4.0932 -0.3251,0.526 -0.051,0.8327 0.6083,0.6816 1.6081,-0.3685 3.2931,4.7192 2.5472,7.691 -0.8374,3.3367 -5.5414,8.6762 -6.939,7.8765 -0.6374,-0.3646 -0.8334,-0.3029 -0.4357,0.1372 0.8612,0.9529 -5.0653,8.7361 -6.1443,8.0692 -0.4101,-0.2534 -0.7625,0.082 -0.7833,0.7453 -0.021,0.6633 -1.6703,3.87886 -3.6658,7.14566 -1.9954,3.2669 -4.516,8.3129 -5.6012,11.2134 -3.6793,9.8339 -5.2007,26.1339 -2.9834,31.9656 3.3056,8.6946 -9.215,15.3653 -16.0365,8.5439 z m -2.3256,-15.3501 c -0.3192,-0.7978 -0.5562,-0.5608 -0.6041,0.6041 -0.043,1.0542 0.1929,1.6448 0.5252,1.3125 0.3323,-0.3322 0.3678,-1.1948 0.079,-1.9166 z m 27.7742,-49.74336 c 0.3164,-0.512 0.193,-1.1672 -0.2743,-1.456 -0.4673,-0.2888 -0.8497,0.1301 -0.8497,0.9309 0,1.6861 0.3154,1.8335 1.124,0.5251 z m 317.8375,27.75956 c -4.1859,-1.1266 -6.2948,-4.2855 -6.2948,-9.4288 0,-3.831 1.2818,-6.2274 3.3333,-6.2316 0.4584,-9e-4 1.1334,-0.3363 1.5,-0.7453 0.3667,-0.409 0.1042,-0.42 -0.5833,-0.024 -2.0367,1.172 -1.4237,-0.9328 0.8718,-2.99366 3.3136,-2.9749 10.2783,-12.3458 13.7246,-18.4662 11.6129,-20.6238 11.2103,-47.1886 -1.0256,-67.6654 -1.8264,-3.0565 -6.5846,-9.1329 -10.5738,-13.5031 -3.9891,-4.3702 -7.5254,-9.0313 -7.8584,-10.358 -1.5231,-6.0689 3.1481,-12.4123 9.1402,-12.4123 3.04,0 4.5828,0.9187 9.6341,5.7367 7.5957,7.2451 13.2158,14.8136 12.2478,16.4939 -0.4023,0.6982 -0.3616,0.9343 0.09,0.5247 1.653,-1.4982 7.3966,9.0424 11.381,20.8863 5.1869,15.4183 5.456,38.2723 0.6283,53.3584 -5.0173,15.6786 -13.2065,29.53046 -23.1707,39.19306 -5.7174,5.5442 -8.6605,6.8157 -13.0449,5.6356 z"
         id="path2" />
    </g>
  </g>
</svg>
