<?xml version="1.0" encoding="UTF-8" standalone="no"?>
<!-- Created with Inkscape (http://www.inkscape.org/) -->

<svg
   version="1.1"
   id="svg1"
   width="1024"
   height="1024"
   viewBox="0 0 1024 1024"
   xmlns:xlink="http://www.w3.org/1999/xlink"
   xmlns="http://www.w3.org/2000/svg"
   xmlns:svg="http://www.w3.org/2000/svg">
  <defs
     id="defs1">
    <linearGradient
       id="linearGradient30">
      <stop
         style="stop-color:#e15237;stop-opacity:1;"
         offset="0"
         id="stop30" />
      <stop
         style="stop-color:#a22f19;stop-opacity:1;"
         offset="1"
         id="stop31" />
    </linearGradient>
    <linearGradient
       id="linearGradient26">
      <stop
         style="stop-color:#5a2713;stop-opacity:1;"
         offset="0"
         id="stop26" />
      <stop
         style="stop-color:#3c1a0d;stop-opacity:1;"
         offset="1"
         id="stop27" />
    </linearGradient>
    <linearGradient
       id="linearGradient24">
      <stop
         style="stop-color:#864126;stop-opacity:1;"
         offset="0"
         id="stop24" />
      <stop
         style="stop-color:#6a341e;stop-opacity:1;"
         offset="1"
         id="stop25" />
    </linearGradient>
    <linearGradient
       xlink:href="#linearGradient24"
       id="linearGradient25"
       x1="1673.8727"
       y1="1070.7906"
       x2="1846.1677"
       y2="1399.5129"
       gradientUnits="userSpaceOnUse" />
    <linearGradient
       xlink:href="#linearGradient26"
       id="linearGradient27"
       x1="1690.0979"
       y1="1004.6606"
       x2="1817.3182"
       y2="1345.821"
       gradientUnits="userSpaceOnUse" />
    <linearGradient
       xlink:href="#linearGradient30"
       id="linearGradient31"
       x1="1665.0833"
       y1="853.60052"
       x2="1854.9116"
       y2="1685.179"
       gradientUnits="userSpaceOnUse" />
  </defs>
  <g
     id="g1">
    <g
       id="g32"
       transform="translate(-1260.4356,-689.86841)">
      <rect
         style="opacity:1;fill:url(#linearGradient31);fill-opacity:1;stroke-width:0;stroke-linecap:round;stroke-linejoin:round;-inkscape-stroke:none"
         id="rect21"
         width="854.38043"
         height="859.40613"
         x="1345.2454"
         y="772.16534"
         ry="184.48305" />
      <g
         id="g31">
        <path
           style="fill:#373737;fill-opacity:1;stroke:none;stroke-width:0;stroke-linecap:round;stroke-linejoin:round;-inkscape-stroke:none"
           d="m 1584.4053,973.72879 -25.7023,25.31727 -0.1137,403.67584 18.6565,19.5766 55.1595,8.4633 1.655,31.9556 33.1017,-11.7111 26.4824,13.5398 7.2609,-33.5 236.5894,-3.1227 14.1539,-13.6538 2.8451,-81.8219 7.1799,-31.3097 2.2317,-310.09194 -20.1426,-21.89388 z"
           id="path22" />
        <path
           style="fill:#cca772;fill-opacity:1;stroke-width:1.04206"
           d="m 1948.8337,1381.0469 -0.2394,-24.2456 -14.2444,49.8621 c -8.6148,30.156 -297.313,-26.464 -300.3731,-25.5459 -5.5043,1.6515 -15.4524,0.1181 -18.3995,6.1544 -1.9992,4.0948 6.43,26.3155 -3.9641,23.3435 l -25.9102,-7.4086 -3.6444,-3.5815 c -2.0045,-1.9699 -3.0243,-3.2113 -2.2661,-2.7587 1.1328,0.6764 1.1422,0.4439 0.052,-1.3044 -0.7296,-1.1701 -1.696,-1.8987 -2.1476,-1.6191 -0.4515,0.2794 -0.5124,-0.2972 -0.1352,-1.2813 0.462,-1.206 0.2923,-1.546 -0.5207,-1.0429 -0.7882,0.4877 -0.9914,0.1857 -0.5862,-0.8718 0.342,-0.8923 0.075,-1.6183 -0.5939,-1.6183 -0.6678,0 -0.9246,-0.4693 -0.5707,-1.0429 0.3539,-0.5736 0.1157,-1.0428 -0.5294,-1.0428 -0.6991,0 -0.9058,-0.8426 -0.5119,-2.0856 0.3635,-1.1472 0.2779,-2.0854 -0.1901,-2.085 -0.4682,4e-4 -0.8512,-3.2833 -0.8512,-7.2971 0,-4.0139 0.4016,-7.2991 0.8924,-7.3006 0.4907,-10e-4 0.6225,-0.7063 0.2931,-1.5666 -0.3298,-0.8605 -0.1773,-1.5644 0.339,-1.5644 0.9943,0 2.6928,-4.0993 2.3005,-5.5524 -0.1276,-0.4727 0.131,-0.6384 0.5747,-0.3681 0.4437,0.2704 1.7068,-0.7106 2.807,-2.1797 1.2227,-1.6331 1.425,-2.3411 0.5206,-1.8217 -0.8137,0.4675 0.1353,-0.8632 2.1089,-2.9568 3.8804,-4.116 5.804,-5.2583 2.5604,-1.5204 -1.0911,1.2572 0.2421,0.4539 2.9625,-1.7851 2.7203,-2.2391 4.9461,-4.4686 4.9461,-4.9546 0,-0.4859 0.4686,-0.5935 1.0414,-0.239 0.5726,0.3546 1.0412,0.1199 1.0412,-0.5214 0,-0.6412 0.4686,-0.8759 1.0414,-0.5214 0.5726,0.3545 1.0412,0.1386 1.0412,-0.4798 0,-0.6952 1.0524,-0.8596 2.7585,-0.4309 1.5444,0.3883 2.505,0.2821 2.182,-0.2408 -0.5596,-0.9067 343.798,-0.8562 344.7033,0.05 0.238,0.2382 0.3975,2.9297 0.3547,5.9811 -0.042,3.0513 0.3896,6.7234 0.9613,8.1601 0.6173,1.5514 0.9168,12.1379 0.7374,26.0705 l -0.3018,23.4583 z"
           id="path29" />
        <path
           style="fill:url(#linearGradient25)"
           d="m 1573.4843,1376.9627 c 0.048,-1.1649 0.2849,-1.4019 0.6041,-0.6041 0.2889,0.7219 0.2534,1.5844 -0.079,1.9166 -0.3322,0.3323 -0.5686,-0.2583 -0.5252,-1.3125 z m 115.171,-37.1665 c 44.9625,-0.144 118.5375,-0.144 163.5,0 44.9625,0.1439 8.175,0.2617 -81.75,0.2617 -89.925,0 -126.7125,-0.1178 -81.75,-0.2617 z m -89.9406,-185.127 -0.011,-169.96792 2.1007,-0.56395 c 1.1555,-0.31017 4.4633,-0.57009 7.3508,-0.5776 l 5.25,-0.0136 v 169.99997 170 h -5.9182 c -3.255,0 -6.558,0.2455 -7.3399,0.5456 -1.2255,0.4702 -1.4232,-22.9151 -1.4326,-169.4224 z m 30.4024,0.6144 c 0.1165,-92.5306 0.229,-169.01875 0.25,-169.97359 0.036,-1.64033 8.5163,-1.73678 153.7882,-1.74911 144.4405,-0.0123 153.9576,0.0928 157.179,1.73606 1.8859,0.96201 4.2489,2.87412 5.2512,4.24912 1.7449,2.39375 1.824,9.35444 1.8597,163.78042 0.034,149.0607 -0.09,161.4951 -1.6368,164.1145 -3.8988,6.6 8.8758,6.1193 -162.0677,6.0988 l -154.8354,-0.019 z m 165.3831,113.6121 c 1.8308,-1.8309 1.9511,-4.1912 2.4147,-47.3882 0.2683,-25.0038 0.4881,-56.9364 0.4885,-70.9614 l 6e-4,-25.5 26.7147,0.2827 c 29.015,0.307 31.8095,-0.088 32.9888,-4.6593 0.3722,-1.4429 0.6375,-7.9371 0.5897,-14.4316 -0.1257,-17.0424 2.624,-15.6918 -31.9468,-15.6918 h -28.3451 v -28.8776 c 0,-24.0629 -0.2428,-29.079 -1.4562,-30.0861 -0.8009,-0.6647 -1.9954,-0.8752 -2.6545,-0.4679 -0.758,0.4685 -0.9362,0.3165 -0.4848,-0.4139 0.526,-0.8511 -2.8654,-1.1545 -12.9045,-1.1545 -8.7188,0 -13.3982,0.3556 -13.007,0.9885 0.3384,0.5476 -0.024,0.745 -0.812,0.4426 -0.8039,-0.3085 -1.7511,0.2402 -2.1774,1.2614 -0.4149,0.9941 -0.855,14.4075 -0.978,29.8075 l -0.2235,28 -27.8564,0.2696 c -23.1923,0.2244 -28.2539,0.5299 -30.2295,1.8244 -1.4195,0.9301 -2.1452,2.1485 -1.806,3.0324 0.3189,0.8312 0.1345,1.2102 -0.4216,0.8665 -0.6315,-0.3903 -0.9886,3.9472 -0.9886,12.0071 0,8.0599 0.3571,12.3973 0.9886,12.0071 0.5437,-0.3361 0.7482,0.015 0.4545,0.7807 -1.2385,3.2275 1.9535,3.6173 30.8462,3.7669 l 28.6976,0.1486 0.2565,71.6484 c 0.203,56.6763 0.5178,71.596 1.5066,71.3983 0.6875,-0.1375 1.1375,0.2981 1,0.968 -0.3409,1.6611 4.7199,2.3039 17.084,2.1702 8.7772,-0.095 10.6243,-0.402 12.2609,-2.0386 z m 1.3237,-125.3496 c 0,-10.725 0.1471,-15.1125 0.3269,-9.75 0.1798,5.3625 0.1798,14.1375 0,19.5 -0.1798,5.3625 -0.3269,0.975 -0.3269,-9.75 z m -32.0758,-12.5 c 0,-4.4 0.1795,-6.0756 0.3907,-3.7236 0.2113,2.3521 0.2083,5.9521 -0.01,8 -0.2148,2.048 -0.3877,0.1236 -0.3841,-4.2764 z m 36.4697,-7.1831 c 0.7219,-0.2889 1.5844,-0.2534 1.9167,0.079 0.3323,0.3323 -0.2583,0.5686 -1.3125,0.5252 -1.1649,-0.048 -1.4019,-0.285 -0.6042,-0.6042 z m 5,0 c 0.7219,-0.2889 1.5844,-0.2534 1.9167,0.079 0.3323,0.3323 -0.2583,0.5686 -1.3125,0.5252 -1.1649,-0.048 -1.4019,-0.285 -0.6042,-0.6042 z m 6.9375,0.021 c 0.6875,-0.2775 1.8125,-0.2775 2.5,0 0.6875,0.2774 0.125,0.5043 -1.25,0.5043 -1.375,0 -1.9375,-0.2269 -1.25,-0.5043 z m 7.5,-0.027 c 0.9625,-0.2516 2.5375,-0.2516 3.5,0 0.9625,0.2515 0.175,0.4573 -1.75,0.4573 -1.925,0 -2.7125,-0.2058 -1.75,-0.4573 z m 6.5625,0.01 c 0.7219,-0.2889 1.5844,-0.2534 1.9167,0.079 0.3323,0.3323 -0.2583,0.5686 -1.3125,0.5252 -1.1649,-0.048 -1.4019,-0.285 -0.6042,-0.6042 z m 4.4566,-0.01 c 0.9729,-0.2536 2.3229,-0.2369 3,0.037 0.677,0.2739 -0.1191,0.4813 -1.7691,0.461 -1.65,-0.02 -2.2039,-0.2445 -1.2309,-0.4981 z m 9.4809,-0.013 c 1.2375,-0.2384 3.2625,-0.2384 4.5,0 1.2375,0.2383 0.225,0.4333 -2.25,0.4333 -2.475,0 -3.4875,-0.195 -2.25,-0.4333 z m 8.5191,0.013 c 0.9729,-0.2536 2.3229,-0.2369 3,0.037 0.677,0.2739 -0.1191,0.4813 -1.7691,0.461 -1.65,-0.02 -2.2039,-0.2445 -1.2309,-0.4981 z"
           id="path15" />
        <path
           style="fill:url(#linearGradient27)"
           d="m 1634.0603,1462.7173 c -1.3858,-1.5313 -1.655,-4.2788 -1.655,-16.8921 v -15.0635 l -18.75,-0.4384 c -20.2533,-0.4736 -25.496,-1.6291 -36.4095,-8.0248 -6.3195,-3.7035 -15.1412,-12.9603 -18.6565,-19.5767 -6.6155,-12.4514 -6.2057,0.9049 -6.1893,-201.7333 0.016,-202.80855 -0.4124,-189.0664 6.303,-201.94242 4.4657,-8.56241 17.4087,-21.31147 25.7023,-25.31729 13.6358,-6.58602 1.468,-6.18271 186.532,-6.18271 151.7452,0 168.5707,0.15636 172.8254,1.6061 6.4151,2.18585 14.7698,10.00569 17.7608,16.62379 l 2.3818,5.27011 v 162.50002 c 0,177.8432 0.4093,166.0355 -6.0479,174.4948 l -3.3637,4.4067 -0.2942,38.7992 c -0.2887,38.0758 -0.3362,38.878 -2.5509,43.0227 -3.063,5.7321 -8.6228,11.0956 -14.1539,13.6539 -4.5738,2.1155 -4.9829,2.1244 -120.5894,2.6227 l -116,0.5 -0.2779,14.952 c -0.3138,16.8856 -0.9396,18.548 -6.983,18.548 -2.4727,0 -6.4968,-1.8352 -14.1967,-6.4745 -5.9103,-3.561 -11.4388,-6.7404 -12.2857,-7.0654 -0.9232,-0.3543 -6.0737,2.2382 -12.8629,6.4745 -12.2518,7.6448 -16.9575,8.8624 -20.2388,5.2366 z m 22.4514,-24.0333 c 4.7335,-2.8259 8.921,-5.1379 9.3056,-5.1379 0.3845,0 4.9046,2.475 10.0445,5.5 5.1399,3.025 9.7274,5.5003 10.1944,5.5007 0.467,4e-4 0.7216,-11.2496 0.5657,-25 l -0.2835,-25.0007 h -19.9665 -19.9666 v 25.059 c 0,13.7825 0.3375,24.8695 0.75,24.6379 0.4125,-0.2316 4.6229,-2.7332 9.3564,-5.559 z m -24.1064,-41.5665 c 0,-11.7835 0.2881,-14.7166 1.5715,-16 1.3606,-1.3607 5.7099,-1.5714 32.4285,-1.5714 26.7187,0 31.0679,0.2107 32.4286,1.5714 1.2782,1.2782 1.5714,4.171 1.5714,15.5 0,10.4717 0.3103,13.9307 1.25,13.9369 68.1476,0.4562 228.3766,-0.2733 229.821,-1.0463 4.597,-2.4602 4.929,-4.9782 4.929,-37.3772 0,-29.3457 -0.075,-30.5549 -1.9718,-31.5697 -1.3665,-0.7314 -52.7097,-0.9724 -167.25,-0.7852 l -165.2782,0.2701 -4.6998,2.3365 c -6.6595,3.3108 -16.8395,12.9895 -20.2994,19.2997 -2.5143,4.5854 -2.9418,6.4521 -2.9462,12.8638 0,6.3434 0.4834,8.5395 3.1633,14.2407 5.0923,10.8339 14.8331,19.272 25.0166,21.6712 2.071,0.488 9.728,0.9324 17.0155,0.9876 l 13.25,0.1005 z m -24.9182,-73.5714 h 5.9182 v -170 -170.00002 l -5.25,0.0136 c -2.8875,0.008 -6.2625,0.285 -7.5,0.61663 l -2.25,0.60298 v 169.99041 c 0,154.5981 0.1433,169.9353 1.5818,169.3833 0.87,-0.3338 4.245,-0.607 7.5,-0.607 z m 334.3785,-1.9755 c 1.758,-1.0864 3.7545,-3.2004 4.4367,-4.6977 0.9715,-2.1323 1.2276,-37.6262 1.1814,-163.7731 -0.057,-154.45985 -0.1339,-161.15314 -1.8897,-163.55224 -1.007,-1.37582 -3.3738,-3.28828 -5.2597,-4.24993 -3.2205,-1.64212 -12.7783,-1.74854 -157.179,-1.75 -145.7464,-10e-4 -153.7522,0.0895 -153.792,1.74845 -0.023,0.9625 -0.1357,77.46242 -0.25,169.99992 l -0.208,168.2499 154.882,10e-5 c 152.4948,10e-5 154.9312,-0.03 158.0783,-1.9754 z m -171.1801,-51.7608 c 2.6291,-0.2067 6.6791,-0.2042 9,0.01 2.3209,0.2097 0.1698,0.3788 -4.7802,0.3758 -4.95,0 -6.8489,-0.1747 -4.2198,-0.3813 z m 18.7158,-0.01 c 1.9228,-0.2319 4.0603,-0.89 4.75,-1.4624 0.919,-0.7627 1.3151,-6.6856 1.4826,-22.1683 l 0.2286,-21.1275 0.2922,20.8983 c 0.3317,23.7312 0.057,24.7404 -6.6543,24.4416 l -3.5951,-0.16 z m -25.9608,-2.1925 c -0.6855,-1.2809 -1.0352,-25.7696 -1.0352,-72.5 v -70.5657 h -28.0657 c -27.0914,0 -31.9343,-0.4712 -31.9343,-3.1067 0,-0.5699 0.7072,-0.3291 1.5715,0.5352 1.3561,1.3562 5.5346,1.5715 30.5,1.5715 h 28.9285 v 71.0657 c 0,47.0751 0.3495,71.7187 1.0352,73 0.5694,1.0638 0.8102,1.9343 0.5352,1.9343 -0.275,0 -0.9658,-0.8705 -1.5352,-1.9343 z m 33.2747,-138.5662 c 0.01,-3.3 0.1923,-4.5295 0.4149,-2.7321 0.2225,1.7973 0.2179,4.4973 -0.01,6 -0.2282,1.5026 -0.4103,0.032 -0.4047,-3.2679 z m 57.8096,-6 c 0.8908,-1.1 1.8678,-2.675 2.1711,-3.5 0.4681,-1.2732 0.5635,-1.2588 0.6305,0.095 0.043,0.8772 -0.9336,2.4522 -2.1711,3.5 -2.2308,1.8887 -2.2362,1.8879 -0.6305,-0.095 z m -152.7377,-15 c 0,-6.6 0.1638,-9.1699 0.3597,-5.7108 0.1958,3.459 0.1942,8.859 0,12 -0.1978,3.1409 -0.3581,0.3108 -0.3561,-6.2892 z m 154.9544,2.5 c 0,-4.125 0.1766,-5.8125 0.3923,-3.75 0.2158,2.0625 0.2158,5.4375 0,7.5 -0.2157,2.0625 -0.3923,0.375 -0.3923,-3.75 z m -0.1783,-10 c 0,-1.375 0.227,-1.9375 0.5044,-1.25 0.2774,0.6875 0.2774,1.8125 0,2.5 -0.2774,0.6875 -0.5044,0.125 -0.5044,-1.25 z m -0.9212,-6.7603 c -1.1676,-2.4906 -1.1398,-2.5714 0.3661,-1.0656 0.8961,0.8962 1.4646,2.1089 1.2633,2.695 -0.2013,0.586 -0.9346,-0.1472 -1.6294,-1.6294 z m -151.4386,-1.3673 c 1.0209,-1.0794 7.5863,-1.4792 30.751,-1.8724 16.1991,-0.275 29.4524,-0.1625 29.4519,0.25 -5e-4,0.4125 -12.8555,0.75 -28.5667,0.75 -19.1567,0 -29.2852,0.3697 -30.75,1.1224 -1.8385,0.9447 -1.9788,0.9052 -0.8862,-0.25 z m 92.2019,-29.801 c 0,-24.9654 -0.2153,-29.1438 -1.5714,-30.5 -1.2719,-1.2719 -4.1204,-1.5714 -14.9433,-1.5714 -12.6845,0 -13.4519,0.1142 -14.9286,2.2225 -0.8561,1.2224 -1.5567,1.7421 -1.5567,1.155 0,-0.5872 0.823,-1.8123 1.8288,-2.7225 1.5068,-1.3637 4.1473,-1.655 15,-1.655 18.6809,0 17.1712,-2.8559 17.1712,32.4844 v 28.4844 l 28.25,0.2818 28.25,0.2818 -28.75,0.2338 -28.75,0.2338 z"
           id="path13" />
        <path
           style="fill:#e6b059;stroke-width:1.00304"
           d="m 1764.341,1267.4911 c -0.9018,-1.0866 -1.1699,-19.0375 -1.0935,-73.2221 l 0.1013,-71.7825 h -29.4215 c -21.5461,0 -29.7438,-0.3223 -30.6253,-1.2037 -0.8144,-0.8143 -1.2037,-5.4783 -1.2037,-14.4213 0,-11.0656 0.2699,-13.4418 1.6572,-14.5943 1.2983,-1.0785 7.9212,-1.4483 30.5928,-1.7078 l 28.9356,-0.3312 v -28.4243 c 0,-15.6333 0.274,-29.1381 0.6089,-30.0108 0.516,-1.3448 2.8034,-1.5865 15.0103,-1.5865 13.6378,0 14.4618,0.1125 15.5373,2.1222 0.7956,1.4866 1.0201,10.4996 0.7494,30.0913 l -0.3866,27.969 h 28.1511 c 23.8555,0 28.4912,0.2383 30.3802,1.5615 2.1017,1.472 2.2293,2.2798 2.2293,14.1085 0,6.9009 -0.4672,13.4202 -1.0382,14.4872 -0.9905,1.8508 -2.3998,1.9402 -30.5928,1.9402 h -29.5546 v 71.562 c 0,68.0544 -0.09,71.6434 -1.8342,73.2221 -2.5187,2.2793 -26.3397,2.4656 -28.203,0.2205 z"
           id="path30" />
        <path
           style="fill:#e6b059;stroke-width:1.00304"
           d="m 1699.4823,1396.317 c 0,-7.4475 0.1579,-10.4943 0.3509,-6.7705 0.193,3.7238 0.193,9.8173 0,13.5411 -0.193,3.7238 -0.3509,0.677 -0.3509,-6.7706 z"
           id="path28" />
        <path
           style="fill:#e6b059;stroke-width:1.00304"
           d="m 1611.6132,1410.619 c 3.4696,-0.1965 8.886,-0.1949 12.0365,0 3.1506,0.1984 0.3117,0.3591 -6.3083,0.3571 -6.6201,0 -9.1977,-0.1643 -5.7282,-0.3607 z"
           id="path27" />
        <path
           style="fill:#e29638;fill-opacity:1;stroke-width:1.00304"
           d="m 1675.0163,1438.8533 c -5.2409,-3.0736 -9.7756,-5.664 -10.0772,-5.7567 -0.3015,-0.092 -4.7162,2.2012 -9.8103,5.0975 -5.0942,2.8962 -9.474,5.2659 -9.7329,5.2659 -0.2589,0 -0.4709,-11.0585 -0.4709,-24.5745 v -24.5745 h 20.0609 20.0608 v 25.076 c 0,13.7918 -0.1128,25.0712 -0.2507,25.0652 -0.138,-0.01 -4.5388,-2.5255 -9.7797,-5.5989 z"
           id="path19" />
        <path
           style="fill:#f8e2bd;fill-opacity:1"
           d="m 1603.2493,1411.0664 c 0.4182,-0.6734 -2.0507,-1.1407 -5.3915,-1.0204 -0.6816,0.024 -0.9925,-0.3546 -0.691,-0.8425 0.4912,-0.7947 -1.7359,-1.3556 -3.8941,-0.9807 -0.4534,0.079 -0.5978,-0.2234 -0.321,-0.6712 0.2768,-0.4479 -0.8135,-1.6965 -2.4228,-2.7748 l -2.9261,-1.9604 v -11.309 c 0,-7.5759 0.3404,-11.0968 1.0372,-10.6662 0.6744,0.4168 0.8121,-0.2656 0.3916,-1.941 -0.42,-1.6732 -0.2371,-2.5838 0.5189,-2.5838 0.6421,0 0.8995,-0.4336 0.572,-0.9635 -0.3276,-0.5299 0.3373,-1.8964 1.4774,-3.0365 1.1401,-1.1401 1.762,-2.576 1.382,-3.191 -0.4201,-0.6796 -0.2384,-0.8382 0.4635,-0.4045 0.635,0.3925 1.1707,0.3495 1.1905,-0.095 0.02,-0.4449 1.1941,-2.1591 2.6097,-3.809 1.4156,-1.65 2.2604,-2.325 1.8773,-1.5 -0.3831,0.825 0.1808,0.4228 1.253,-0.8938 1.0821,-1.3287 2.4556,-2.0812 3.0868,-1.691 0.6255,0.3866 1.1372,0.2403 1.1372,-0.3249 0,-0.5652 0.675,-0.7686 1.5,-0.452 0.825,0.3167 1.5,0.19 1.5,-0.2814 0,-0.4725 73.3415,-0.857 163.467,-0.857 h 163.467 l 0.283,24.1556 c 0.1557,13.2856 -0.054,23.9465 -0.467,23.691 -0.4125,-0.2555 -0.75,0.035 -0.75,0.6455 0,0.6106 -1.5605,1.762 -3.4679,2.559 -2.9582,1.2361 -19.9316,1.449 -115.5,1.449 H 1702.6 v -13 c 0,-8.483 -0.3679,-13 -1.059,-13 -0.5824,0 -0.8033,-0.4137 -0.4908,-0.9194 0.3125,-0.5056 -0.1535,-1.641 -1.0356,-2.5232 -1.4074,-1.4075 -5.4815,-1.5948 -33.2821,-1.5299 -17.4231,0.041 -32.1632,0.3885 -32.7557,0.7732 -2.6282,1.706 -3.3768,5.6034 -3.3768,17.5809 v 12.5129 l -13.9067,0.3027 c -7.6487,0.1665 -13.6972,-0.035 -13.441,-0.4473 z m 28.7331,-13.75 c 0,-6.875 0.1598,-9.6875 0.355,-6.25 0.1953,3.4375 0.1953,9.0625 0,12.5 -0.1952,3.4375 -0.355,0.625 -0.355,-6.25 z"
           id="path20" />
      </g>
    </g>
  </g>
</svg>
