<?xml version="1.0" encoding="UTF-8" standalone="no"?>
<!-- Created with Inkscape (http://www.inkscape.org/) -->

<svg
   version="1.1"
   id="svg1"
   width="1024"
   height="1024"
   viewBox="0 0 1024 1024"
   xmlns="http://www.w3.org/2000/svg"
   xmlns:svg="http://www.w3.org/2000/svg">
  <defs
     id="defs1" />
  <g
     id="g1">
    <g
       id="g5"
       transform="translate(-1077.9135,118.60917)">
      <rect
         style="opacity:1;fill:#d15a3a;fill-opacity:1;stroke:none;stroke-width:0;stroke-linecap:round;stroke-linejoin:round;-inkscape-stroke:none"
         id="rect4"
         width="855.57367"
         height="858.6701"
         x="1162.1267"
         y="-35.944218"
         ry="192.19258" />
      <g
         id="g4">
        <path
           style="fill:#5c3014"
           d="m 1587.3156,627.46331 c -35.425,-11.47896 -57.6878,-18.57035 -105.2501,-33.52548 -62.7534,-19.73168 -82.8263,-26.10729 -116,-36.84423 -41.8735,-13.55267 -42.3697,-13.7386 -49.3929,-18.50796 -8.744,-5.93799 -13.4609,-12.61642 -17.7084,-25.07276 -1.5235,-4.46787 -1.8533,-8.22106 -1.7577,-20 0.1674,-20.61461 3.4056,-31.28873 13.2829,-43.78452 l 4.0951,-5.1807 -3.4218,-1.42974 c -7.4766,-3.1239 -9.4644,-8.41378 -5.8457,-15.55571 1.396,-2.75493 3.059,-3.97918 8.2485,-6.07195 l 6.5,-2.62129 v -24.41639 -24.41639 l -6.3488,-2.53657 c -7.8609,-3.1407 -9.458,-5.09045 -8.8455,-10.79901 0.7347,-6.84752 4.3219,-9.42299 20.6943,-14.85764 0.9824,-0.32609 -0.053,-1.29616 -3,-2.81099 -8.4903,-4.36416 -13.3776,-9.71481 -18.954,-20.75095 -4.7974,-9.49445 -5.2728,-11.08459 -6.3085,-21.10353 -2.0268,-19.60658 1.812,-35.73242 11.3832,-47.81701 3.7831,-4.77653 12.829,-11.06244 20.0497,-13.9323 9.3166,-3.70287 93.4977,-31.32525 132.3296,-43.42138 8.25,-2.56988 22.65,-7.06328 32,-9.98533 71.8345,-22.44969 68.4102,-21.48174 76.0501,-21.49673 5.3299,-0.0105 30.6466,4.69014 50.9499,9.45996 3.85,0.90448 17.575,3.85229 30.5,6.5507 12.925,2.69842 32.95,6.92257 44.5,9.38702 11.55,2.46445 23.7991,5.06799 27.2202,5.78563 l 6.2203,1.30482 -3.0913,4.5 c -7.8592,11.44098 -10.3327,20.92325 -10.3041,39.5 0.03,19.65387 3.9269,35.99718 14.4055,60.42047 2.223,5.18126 3.8697,9.59253 3.6594,9.80282 -0.4774,0.47749 -27.2831,10.05342 -55.61,19.86585 -11.825,4.09618 -23.4125,8.15155 -25.75,9.01194 l -4.25,1.56434 v 30.41729 c 0,16.72951 0.2147,30.41729 0.4771,30.41729 0.5313,0 51.7693,-19.14645 86.5229,-32.33158 12.375,-4.69494 23.625,-8.78028 25,-9.07854 2.1889,-0.4748 2.9963,0.2324 6.4892,5.68392 4.0264,6.28425 11.6269,15.62142 20.9411,25.7262 11.7879,12.78836 16.7812,14.906 20.6322,8.75 3.348,-5.35192 2.1436,-8.64135 -6.6023,-18.031 -6.9971,-7.51219 -23.031,-28.52829 -22.278,-29.20044 0.1748,-0.15602 3.4678,-1.42915 7.3178,-2.82918 3.85,-1.40004 16.8329,-6.17789 28.8509,-10.61745 12.018,-4.43956 22.0381,-8.07193 22.2669,-8.07193 1.7007,0 -20.3857,34.94536 -23.924,37.85272 -1.4875,1.22227 -1.222,1.77694 2.7531,5.75208 5.4598,5.45976 7.026,9.79745 7.0033,19.3952 -0.02,8.44958 -2.4176,14.12111 -7.5844,17.94111 -3.4559,2.55505 -3.6669,5.57817 -0.6158,8.82237 2.1407,2.27619 2.2653,3.29797 2.5642,21.03937 0.1882,11.1693 0.7386,19.15832 1.3725,19.92208 0.7811,0.94118 5.4736,1.27507 17.92,1.27507 h 16.8617 l 3.2658,2.91797 3.2658,2.91797 v 12.47704 c 0,17.55136 1.1391,16.68283 -21.905,16.70233 -9.9522,0.008 -18.644,0.36412 -19.3149,0.79044 -0.9235,0.58678 -1.288,11.73496 -1.5,45.88055 -0.2654,42.73512 -0.3802,45.21599 -2.1851,47.20956 -1.7524,1.93566 -2.9582,2.10414 -15.0589,2.10414 -9.7784,0 -13.652,-0.36405 -15.095,-1.41868 -1.8602,-1.35956 -1.9619,-3.34973 -2.4411,-47.75 l -0.5,-46.33132 -21.6123,-0.26912 c -26.8969,-0.33492 -25.4801,0.52788 -25.1855,-15.3369 0.2248,-12.10334 1.7171,-16.85272 5.893,-18.75542 1.5951,-0.72676 9.5348,-1.13856 21.9519,-1.13856 h 19.4529 v -19.35169 -19.35168 l 3,-3.13921 c 1.65,-1.72657 3,-3.86469 3,-4.75139 0,-0.88669 -1.94,-3.76996 -4.3112,-6.40726 -4.4128,-4.90812 -6.6888,-10.3064 -6.6888,-15.86479 0,-1.72369 -0.2557,-3.13398 -0.5682,-3.13398 -0.5778,0 -27.5437,10.33383 -102.9318,39.4453 -23.1,8.92018 -43.8,16.87519 -46,17.6778 l -4,1.4593 -0.2645,30.7088 c -0.191,22.18398 0.047,30.7088 0.8573,30.7088 0.991,0 16.945,-6.19933 82.7565,-32.15701 9.5421,-3.76364 17.9271,-6.84299 18.6334,-6.84299 1.828,0 2.488,3.32182 2.5037,12.60078 0.021,12.54364 1.9638,16.02464 10.1332,18.15667 3.1856,0.83136 1.8817,1.47184 -22.6196,11.11146 -14.3,5.62609 -41.6358,16.39467 -60.7463,23.93017 l -34.7462,13.70092 v 30.85699 c 0,24.28197 0.2626,30.75237 1.2462,30.36601 0.6875,-0.27004 35.225,-14.09687 76.75,-30.7263 41.525,-16.62943 76.0625,-30.45478 76.75,-30.723 0.9636,-0.37594 1.2477,2.68714 1.24,13.36931 l -0.01,13.85699 -16.24,6.39325 c -8.9319,3.51629 -20.2899,8.10076 -25.2399,10.18772 -4.95,2.08695 -21.15,8.59813 -36,14.46927 -14.85,5.87115 -31.725,12.61459 -37.5,14.98543 -23.4049,9.60849 -39.0476,15.46203 -41.2122,15.42158 -1.2583,-0.0235 -16.1253,-4.52658 -33.0378,-10.00682 z m 18.8404,-79.6933 c -0.4748,-0.47473 -28.7228,-9.29932 -61.5905,-19.24065 -11.275,-3.4103 -37.15,-11.2966 -57.5,-17.52513 -20.35,-6.22852 -45.775,-13.86674 -56.5,-16.97381 -10.725,-3.10707 -29.625,-8.7434 -42,-12.52518 -56.2196,-17.18064 -56.6195,-17.27474 -61.8667,-14.56129 -5.1963,2.6871 -6.6333,8.11096 -6.6333,25.03653 0,24.81345 1.7308,27.3419 23.3499,34.1112 8.0576,2.52295 26.5751,8.34108 41.1501,12.92917 14.575,4.5881 50.8,15.99145 80.5,25.34078 43.2307,13.60871 135.3862,42.27101 140,43.54296 0.9788,0.26984 2.0566,-59.16843 1.0905,-60.13458 z m 3.4095,-70.68617 V 447.6548 l -5.25,-1.50243 c -17.8962,-5.12149 -149.6392,-41.61082 -196.75,-54.49457 -20.075,-5.49006 -43.9956,-12.0436 -53.157,-14.56342 -9.1613,-2.51983 -17.1562,-4.5815 -17.7663,-4.5815 -0.7915,0 -1.033,7.65559 -0.843,26.71334 l 0.2663,26.71334 7.5,2.21967 c 4.125,1.22082 22.8,6.73795 41.5,12.26028 18.7,5.52233 70,20.6723 114,33.66658 44,12.99429 86.3,25.56302 94,27.93052 7.7,2.3675 14.5625,4.34768 15.25,4.40041 0.9738,0.0747 1.25,-6.40549 1.25,-29.33318 z m 25,-109.59571 v -31.02475 l -2.4935,-0.94803 c -1.3714,-0.52141 -22.4089,-5.93811 -46.75,-12.03711 -24.3411,-6.099 -59.1065,-14.94145 -77.2565,-19.64989 -31.4173,-8.15024 -63.4184,-16.37887 -138.5909,-35.6367 -37.2245,-9.53623 -38.2552,-9.62145 -43.3362,-3.58301 -4.417,5.24924 -5.885,12.61323 -5.3681,26.92784 0.7532,20.85815 4.2005,25.28389 23.9239,30.71382 10.4945,2.8892 24.8788,6.72495 103.8713,27.69867 15.675,4.16195 40.425,10.73891 55,14.61548 29.8554,7.94075 84.3989,22.21906 105.5,27.61765 7.7,1.96999 16.025,4.16898 18.5,4.88664 2.475,0.71766 5.0625,1.33618 5.75,1.37449 0.9746,0.0543 1.25,-6.76482 1.25,-30.9551 z m 188.4838,176.38841 0.5189,-13.86366 17.2485,-7.0673 17.2485,-7.06729 0.2911,-8.22287 c 0.2726,-7.70076 0.452,-8.29617 2.825,-9.37739 4.2647,-1.94312 5.3839,-5.57525 5.3839,-17.47209 0,-12.14362 -0.92,-16.50799 -4.2261,-20.0482 -4.5878,-4.91262 -7.2846,-5.59889 -23.7739,-6.05001 l -15.5,-0.42404 v -10.81074 -10.81074 l 15.4307,-5.79609 c 8.4869,-3.18784 16.7852,-6.70894 18.4407,-7.82466 4.972,-3.3508 8.0196,-10.59438 8.6139,-20.47337 0.6137,-10.20141 -0.3463,-19.98891 -2.5267,-25.75861 -1.7497,-4.63006 -7.0921,-9.91552 -11.0184,-10.90097 -2.1162,-0.53113 -9.4798,1.61658 -18.7756,5.4762 -0.4926,0.20451 1.5952,-2.94549 4.6394,-7 4.1663,-5.54883 20.6415,-33.46756 22.9057,-38.81574 0.1597,-0.37713 2.0903,-1.39213 4.2903,-2.25555 l 4,-1.56987 0.6202,-10.36533 c 0.3834,-6.4073 1.4326,-12.78318 2.7477,-16.69719 7.0787,-21.06705 8.6804,-50.15184 3.5047,-63.63963 -0.8059,-2.09993 0.8039,-1.93515 15.8149,1.61891 10.2907,2.43647 11.9911,3.93929 12.5798,11.11807 0.557,6.79169 -1.5895,9.61265 -10.8711,14.28678 l -6.8962,3.47286 v 26.44212 26.44211 l 3.75,0.60094 c 5.5022,0.88172 9.9382,3.08425 11.7351,5.82656 1.9533,2.98112 2.2319,11.09434 0.4544,13.23599 -1.8488,2.22777 -8.7076,5.45673 -21.0676,9.91826 l -10.6282,3.83637 4.135,5.08625 c 8.4092,10.34363 12.5354,24.32394 12.569,42.58626 0.032,17.12228 -3.9301,29.03503 -12.5089,37.61382 -2.4413,2.44135 -4.4388,4.65197 -4.4388,4.9125 0,0.26052 0.8831,0.47368 1.9625,0.47368 3.7289,0 12.9988,4.13538 15.0147,6.69819 2.6805,3.40763 2.7662,11.16213 0.1591,14.38182 -1.025,1.26587 -4.0625,3.46392 -6.75,4.88456 l -4.8863,2.58298 v 23.44492 23.44492 l 5,1.85496 c 6.3629,2.36057 8.263,4.11362 9.5205,8.78371 1.9645,7.2957 -1.3325,10.6338 -16.0205,16.21987 -7.5075,2.85524 -44.8795,17.86371 -50.7674,20.38802 -1.0023,0.42971 -1.1588,-2.35653 -0.7485,-13.32029 z m -74.1672,-245.09369 c -0.6253,-1.52348 -2.9601,-6.89957 -5.1883,-11.94686 -8.3194,-18.8448 -12.1379,-34.49946 -12.1134,-49.66108 0.024,-14.71665 4.1791,-27.98338 11.3196,-36.14027 l 3.1656,-3.61613 13.5,2.61569 c 7.425,1.43863 21.375,4.35868 31,6.48899 9.625,2.13032 26.9054,5.92573 38.4009,8.43426 20.8227,4.5439 22.5176,5.13456 25.8606,9.01221 5.065,5.8751 8.5884,22.01566 7.2425,33.17826 l -0.6192,5.13504 -15.1924,5.26765 c -18.8826,6.54715 -92.6437,32.54653 -94.7156,33.38545 -1.0376,0.42012 -1.8858,-0.26638 -2.6603,-2.15321 z"
           id="path2" />
        <path
           style="fill:#fbf3e9"
           d="m 1620.5656,580.00424 v -30.39779 l 4.25,-1.84874 c 2.3375,-1.01681 29.7984,-11.9124 61.0241,-24.21243 l 56.7742,-22.36369 -4.6928,-1.58436 c -7.3668,-2.48717 -8.6359,-5.01239 -9.2961,-18.49719 -0.3077,-6.28387 -0.8319,-11.69669 -1.165,-12.02848 -0.5836,-0.58135 -11.828,3.69797 -63.3944,24.12623 -13.2,5.22924 -27.494,10.80544 -31.7644,12.39155 l -7.7644,2.88385 0.2644,-30.67304 0.2644,-30.67303 17.5,-6.72282 c 9.625,-3.69756 43.6,-16.80088 75.5,-29.11849 l 58,-22.39566 0.7559,3.06135 c 2.1769,8.81605 3.2006,11.00863 7.2896,15.61257 2.45,2.75855 4.4545,5.66001 4.4545,6.44769 0,0.78768 -1.35,2.81317 -3,4.5011 l -3,3.06896 v 18.85202 18.85202 l -3.25,0.50348 c -1.7875,0.27691 -10.8499,0.57053 -20.1386,0.65249 -9.2887,0.082 -17.7216,0.5948 -18.7396,1.13966 -4.0409,2.1626 -5.3718,6.7837 -5.3718,18.65153 0,16.43448 -1.1938,15.69831 26.0849,16.08543 l 21.5337,0.30559 -0.2004,44.74657 c -0.2139,47.78029 -0.1615,48.33884 4.7077,50.19012 3.3932,1.29008 21.3372,1.20955 25.1304,-0.11277 1.8039,-0.62884 3.4921,-2.16444 4.1226,-3.75 0.6842,-1.72069 1.1671,-18.48862 1.3444,-46.6851 l 0.2767,-44 18.5,-0.53234 c 10.175,-0.29278 19.2242,-0.87915 20.1094,-1.30304 3.2647,-1.56338 4.3697,-5.64565 4.3434,-16.04585 -0.027,-10.70508 -1.4803,-15.49275 -5.3274,-17.55166 -1.0196,-0.5457 -9.6775,-1.29387 -19.2397,-1.66261 -9.5621,-0.36874 -17.4445,-0.7231 -17.5164,-0.78747 -0.072,-0.0644 -0.3542,-8.24507 -0.6273,-18.17934 -0.4913,-17.87132 -1.4464,-22.9009 -4.7349,-24.93329 -1.9244,-1.18934 -0.9846,-3.44462 2.9539,-7.08865 5.1437,-4.75909 7.4264,-11.39495 6.7964,-19.75703 -0.2553,-3.38729 -0.7559,-6.83372 -1.1126,-7.65872 -0.4229,-0.97821 1.2632,-3.64042 4.8469,-7.6531 4.9107,-5.49843 6.3902,-6.47686 13.9052,-9.19609 9.6462,-3.49042 13.3024,-3.16164 17.8711,1.60703 4.3878,4.57985 5.9608,10.47764 6.4655,24.24216 0.402,10.95956 0.2,13.18538 -1.6388,18.06152 -2.9729,7.88314 -6.457,10.97464 -16.7662,14.87675 -4.8556,1.83793 -12.316,4.66809 -16.5785,6.28924 l -7.75,2.94756 v 10.91247 10.91246 l 10.75,0.0201 c 27.8998,0.0522 32.2679,3.23126 33.0495,24.05337 0.4872,12.97861 -0.4178,16.09441 -5.7844,19.91578 -2.9043,2.06804 -3.0153,2.4292 -3.0213,9.82883 l -0.01,7.68192 -17.4939,6.92062 -17.4938,6.92062 v 27.8615 c 0,29.80941 -0.3227,32.10628 -5.1211,36.45141 -3.6087,3.26779 -8.3027,4.04659 -20.458,3.39431 -18.863,-1.01224 -19.897,-2.55972 -19.911,-29.79773 -0.01,-12.57248 -0.3683,-19.24952 -1.0432,-19.25 -0.7727,-5.5e-4 -112.7502,44.54788 -150.7167,59.96019 l -4.75,1.92824 z m -57.5,14.83889 c -23.65,-7.41282 -55.825,-17.52678 -71.5,-22.47547 -26.7773,-8.45372 -42.397,-13.36179 -105,-32.99323 -14.025,-4.39804 -32.5161,-10.20768 -41.0913,-12.91029 -8.5753,-2.70261 -16.7253,-5.80574 -18.1111,-6.89585 -1.3859,-1.09011 -3.5526,-4.36104 -4.815,-7.26872 -2.0282,-4.67146 -2.3047,-6.97417 -2.3761,-19.78671 -0.087,-15.63019 0.822,-20.17505 4.7791,-23.89255 4.6382,-4.35736 6.7095,-4.00271 46.1144,7.89584 20.35,6.14481 48.925,14.69167 63.5,18.99302 14.575,4.30135 40.675,12.15608 58,17.45495 17.325,5.29887 38.925,11.88495 48,14.63572 9.075,2.75077 27.6375,8.4302 41.25,12.62095 l 24.75,7.61955 v 30.33626 c 0,16.68494 -0.1125,30.29309 -0.25,30.24032 -0.1375,-0.0528 -19.6,-6.16097 -43.25,-13.57379 z m 31,-92.82597 c -15.085,-4.63755 -149.8497,-44.49785 -209.5,-61.96527 -20.075,-5.87858 -38.975,-11.47923 -42,-12.44589 l -5.5,-1.75756 -0.5,-26.66871 c -0.275,-14.66779 -0.3497,-26.66829 -0.166,-26.66779 1.043,0.003 156.0498,42.71564 249.416,68.72766 l 23.75,6.6168 v 29.32823 c 0,16.13053 -0.3375,29.28509 -0.75,29.23237 -0.4125,-0.0527 -7.05,-2.03265 -14.75,-4.39984 z m 17,-109.43952 c -12.1,-3.18956 -35.95,-9.45734 -53,-13.9284 -35.5825,-9.33089 -133.2658,-35.21262 -166.5,-44.11509 -12.375,-3.3149 -30.1483,-8.07297 -39.4962,-10.57348 -20.8903,-5.58801 -24.3874,-7.47392 -28.1796,-15.19648 -2.7047,-5.50789 -2.8242,-6.36509 -2.8242,-20.25133 0,-14.0257 0.092,-14.66586 2.8113,-19.57059 3.1124,-5.61372 6.9503,-8.42941 11.4896,-8.42941 1.6457,0 16.8763,3.55471 33.8457,7.89936 83.9635,21.49706 104.4436,26.76587 123.3534,31.73446 11.275,2.96254 47.6125,12.2083 80.75,20.54613 l 60.25,15.15971 v 31.33017 c 0,17.23159 -0.1125,31.29956 -0.25,31.26216 -0.1375,-0.0374 -10.15,-2.67765 -22.25,-5.86721 z m 36.5,-24.26907 v -30.41826 l 16.75,-5.82436 c 9.2125,-3.2034 28.6682,-10.05864 43.235,-15.23387 14.5667,-5.17523 26.6095,-9.0358 26.7617,-8.57904 0.7926,2.37759 16.2982,30.01866 21.3806,38.11397 3.23,5.14478 5.8727,9.53228 5.8727,9.75 0,0.21772 -0.4824,0.39585 -1.0719,0.39585 -0.5896,0 -13.0771,4.53373 -27.75,10.07495 -14.673,5.54123 -39.0531,14.73221 -54.1781,20.4244 -15.125,5.6922 -28.2875,10.65662 -29.25,11.03204 -1.6433,0.64096 -1.75,-1.17253 -1.75,-29.73568 z m 122.7846,-31.04571 c -11.0918,-17.73621 -20.2828,-35.62664 -18.6179,-36.24013 6.092,-2.24482 29.5681,-10.50726 55.8333,-19.65055 17.325,-6.03109 36.4174,-12.73676 42.4277,-14.90148 6.0102,-2.16472 11.0409,-3.82258 11.1793,-3.68414 0.3092,0.30913 -1.2043,8.05665 -3.2446,16.6098 -3.4123,14.30483 -15.5778,43.82343 -19.6789,47.74948 -0.6509,0.62314 -9.9585,4.30036 -20.6835,8.1716 -10.725,3.87124 -23.7011,8.6489 -28.8358,10.61702 -5.1347,1.96812 -9.6469,3.5784 -10.0273,3.5784 -0.3803,0 -4.1388,-5.5125 -8.3523,-12.25 z m 91.2154,-17.13486 c 0,-0.21482 1.298,-3.25362 2.8844,-6.75287 1.5865,-3.49925 3.1721,-7.21418 3.5236,-8.2554 1.1139,-3.29961 1.3564,-1.32325 0.7145,5.82365 -0.5981,6.6591 -0.7498,6.98231 -3.8725,8.25287 -1.7875,0.72729 -3.25,1.14658 -3.25,0.93175 z"
           id="path4" />
      </g>
    </g>
  </g>
</svg>
