<?xml version="1.0" encoding="UTF-8" standalone="no"?>
<!-- Created with Inkscape (http://www.inkscape.org/) -->

<svg
   version="1.1"
   id="svg1"
   width="1024"
   height="1024"
   viewBox="0 0 1024 1024"
   xmlns:xlink="http://www.w3.org/1999/xlink"
   xmlns="http://www.w3.org/2000/svg"
   xmlns:svg="http://www.w3.org/2000/svg">
  <defs
     id="defs1">
    <linearGradient
       id="linearGradient11169">
      <stop
         style="stop-color:#e75b3e;stop-opacity:1;"
         offset="0"
         id="stop11169" />
      <stop
         style="stop-color:#e44727;stop-opacity:1;"
         offset="1"
         id="stop11170" />
    </linearGradient>
    <linearGradient
       xlink:href="#linearGradient11169"
       id="linearGradient11170"
       x1="1437.8361"
       y1="81.468506"
       x2="1537.7798"
       y2="817.09552"
       gradientUnits="userSpaceOnUse" />
  </defs>
  <g
     id="g1">
    <g
       id="g11170"
       transform="translate(-1009.5686,18.296047)">
      <rect
         style="opacity:1;fill:url(#linearGradient11170);fill-opacity:1;stroke:none;stroke-width:0;stroke-linecap:round;stroke-linejoin:round;-inkscape-stroke:none"
         id="rect11169"
         width="856.89325"
         height="860.6626"
         x="1093.1219"
         y="63.372654"
         ry="186.28229" />
      <g
         id="g11169">
        <path
           style="fill:#582d12"
           d="m 1168.6863,684.96612 c -3.4329,-3.4329 -3.6181,-3.94196 -3.1618,-8.69116 0.9368,-9.74876 0.6037,-9.66235 37.2413,-9.66235 h 31.3882 l 0.3566,-53.75 c 0.1962,-29.5625 0.4505,-99.3694 0.5652,-155.12643 0.2571,-124.97097 -1.9745,-115.2985 26.8891,-116.54461 l 11.8012,-0.50949 0.5,-10.50805 c 0.6468,-13.59416 0.7696,-13.72077 17.0685,-17.60707 85.8741,-20.47573 158.0771,-17.77263 218.1146,8.16565 l 11.9611,5.16763 10.6779,-5.1042 c 53.6665,-25.65343 114.0011,-28.71969 197.1779,-10.02078 7.425,1.66921 16.425,3.65666 20,4.41656 4.949,1.05195 7.1562,2.10591 9.25,4.41699 l 2.75,3.03535 -0.011,29.23423 -0.011,57.23422 -9.4889,14.38364 -9.4889,14.38365 v -65.5951 -37.5951 l -3.75,-0.99538 c -77.259,-20.50716 -147.8506,-19.04463 -195,4.04007 l -12.25,5.99769 v 143.44026 c 0,78.89215 0.1683,143.44027 0.3741,143.44027 0.2057,0 2.3673,-1.11408 4.8036,-2.47573 17.6973,-9.89121 48.0002,-16.70486 79.0723,-17.7795 11.0075,-0.3807 10.6084,-0.77819 7.8715,7.84007 -10.0729,31.71872 -9.7613,40.30664 1.6624,45.82797 8.8252,4.2654 11.0161,3.17444 43.2161,-21.52003 14.025,-10.75589 27.8844,-21.35834 30.7987,-23.56101 l 5.2986,-4.00486 7.2014,1.35449 c 3.9607,0.74497 11.8498,2.47141 17.5314,3.83654 5.6815,1.36513 10.8913,2.48206 11.5773,2.48206 0.964,0 1.3034,-6.97548 1.4941,-30.70971 l 0.2468,-64.70971 11.53,-14.92742 c 6.8859,-8.91494 19.2679,-27.77821 28.7254,-41.04029 9.4575,-13.26208 18.4107,-25.90479 19.8959,-28.095 l 2.7004,-3.98214 0.088,65.98214 c 0.048,18.69017 0.2868,62.55713 0.5297,97.48213 l 0.4417,63.5 32.7959,0.26326 32.7959,0.26327 2.9244,3.05284 c 3.5673,3.72399 3.9719,10.5532 0.8308,14.024 -4.7294,5.22604 19.1741,4.89663 -355.3234,4.89663 H 1172.333 Z m 342.2301,-197.60351 -0.1503,-143.25 -5.2755,-2.82713 C 1460.11,316.96627 1383.2967,312.79714 1305.7661,330.4452 l -12,2.73153 -0.2533,145.82621 c -0.2409,138.65317 -0.1672,145.79062 1.5,145.10241 50.5075,-20.85043 166.5088,-18.74521 209.7533,3.80665 2.75,1.43412 5.2927,2.62844 5.6503,2.65405 0.3577,0.0256 0.5827,-64.41594 0.5,-143.20344 z m -45.6503,79.67582 c -39.4664,-11.48087 -79.1144,-12.94123 -120.4482,-4.43648 -17.9385,3.691 -25.7613,-0.94847 -20.0902,-11.91505 9.1699,-17.73259 140.1028,-15.26539 156.7884,2.95441 9.1059,9.94312 -0.6043,17.9485 -16.25,13.39712 z m -3.5,-55.98466 c -38.3984,-10.14425 -83.5402,-10.72808 -122.4663,-1.58388 -12.3419,2.89927 -17.0337,0.52575 -17.0337,-8.61722 0,-16.28052 75.2695,-23.38031 129.5,-12.21507 29.0267,5.97616 34.5384,8.92303 32.9113,17.59634 -1.4317,7.63163 -7.4643,8.90069 -22.9113,4.81983 z m 8.5,-50.57372 c -39.748,-11.98697 -86.3133,-13.00807 -136.6571,-2.99665 -11.3776,2.26256 -11.3429,2.39482 -11.3429,-43.23007 0,-42.12112 -0.092,-41.47671 6.2531,-43.54695 38.7691,-12.64825 119.0399,-9.86126 149.7469,5.19918 7.3513,3.60551 7.1909,2.5336 6.6723,44.57357 -0.5551,45.00477 -0.3086,44.33264 -14.6723,40.00092 z m 159.655,190.30382 c -2.8045,-3.09887 -3.7812,1.04129 14.2956,-60.59691 4.6941,-16.00576 6.9127,-22.00115 9.4365,-25.5 1.8148,-2.51589 23.1848,-34.27435 47.489,-70.57435 24.3042,-36.3 49.6936,-74.1 56.421,-84 6.7273,-9.9 17.1237,-25.2 23.1031,-34 5.9795,-8.8 10.9702,-16.12217 11.0906,-16.27149 0.1941,-0.24076 15.0494,10.36538 29.0092,20.71152 2.75,2.03813 8.2246,6.04988 12.1657,8.915 l 7.1657,5.20931 -18.5317,27.21783 c -10.1924,14.96981 -26.2419,38.37158 -35.6657,52.00393 -23.4195,33.87878 -40.7951,59.34525 -66.8106,97.9211 l -22.0577,32.7072 -10.1329,7.8503 c -5.573,4.31767 -14.7921,11.42443 -20.4868,15.7928 -5.6947,4.36838 -13.7208,10.56976 -17.8358,13.78086 -14.4977,11.31317 -15.8368,11.94721 -18.6552,8.8329 z m 39.0835,-42.20302 c 7.0188,-5.50044 12.7615,-10.40968 12.7615,-10.90942 0,-1.44198 -19.7539,-16.21582 -20.5161,-15.34388 -0.3775,0.43178 -2.3725,6.86006 -4.4334,14.28506 -2.0609,7.425 -4.3568,15.43071 -5.1019,17.79046 -3.0522,9.66603 -2.0384,9.32464 17.2899,-5.82222 z m 51.5825,-77.7257 c 18.0516,-26.8084 41.5286,-61.34254 52.1713,-76.74254 10.6426,-15.4 23.4023,-33.89683 28.3548,-41.10407 l 9.0046,-13.10406 -6.1309,-4.52392 -6.1309,-4.52391 -22.396,32.62798 c -12.3178,17.94539 -38.1757,56.25298 -57.4621,85.12798 -19.2864,28.875 -36.7736,54.81989 -38.8606,57.65531 l -3.7944,5.15532 5.2116,4.03664 c 2.8664,2.22015 5.6616,4.0594 6.2116,4.08723 0.55,0.0278 15.7695,-21.88356 33.821,-48.69196 z m -162.7318,-30.31927 c -11.0053,-13.07905 8.6778,-20.09924 62.9111,-22.43793 31.4633,-1.35679 42.0379,2.83865 36.0995,14.32231 -2.2275,4.30742 -4.0617,4.65964 -22.5995,4.33977 -17.799,-0.30712 -38.2676,1.46534 -55.998,4.84909 -14.7858,2.82179 -17.2444,2.69253 -20.4131,-1.07324 z m 3.5209,-52.26435 c -11.4397,-6.60108 -5.7806,-16.17813 11.5787,-19.59483 43.4959,-8.56097 111.9895,-7.64498 119.2576,1.59487 7.6473,9.72194 -0.5576,15.8065 -18.5138,13.72943 -30.9404,-3.57901 -60.2526,-2.8415 -88.6569,2.23064 -19.5926,3.49866 -20.9368,3.61452 -23.6656,2.03989 z m -2.187,-55.582 c -7.5204,-7.52039 -2.9006,-14.63397 11.4704,-17.66231 42.1549,-8.8831 76.9282,-9.72099 117.6065,-2.83381 20.0138,3.38851 23,5.06942 23,12.94646 0,8.26997 -5.4467,9.47751 -26.882,5.95976 -38.7795,-6.3641 -64.3477,-5.85987 -105.118,2.07304 -15.7854,3.07147 -16.5405,3.0533 -20.0769,-0.48314 z m 285.0769,-13.02483 c -1.925,-1.51945 -11.7551,-8.79027 -21.8447,-16.15736 -21.3558,-15.59338 -21.1553,-15.43989 -21.1553,-16.19194 0,-1.64368 14.6612,-21.038 17.3579,-22.96151 5.547,-3.95666 12.757,-3.19412 21.1887,2.2409 29.0383,18.71812 29.9623,21.34139 15.6795,44.51782 -7.4948,12.16153 -7.0665,11.83532 -11.2261,8.55209 z"
           id="path11163" />
        <path
           id="path11169"
           style="fill:#fceddc;fill-opacity:1;stroke-width:0;stroke-linecap:round;stroke-linejoin:round;-inkscape-stroke:none"
           d="m 1681.119,574.85269 c -3.3848,-2.82566 -4.1082,-4.10708 -3.1411,-5.56409 19.4944,-29.37043 117.867,-174.68638 119.4966,-176.52032 0.7649,-0.86075 10.5451,6.12025 10.5451,7.52693 0,0.73663 -13.4617,20.94161 -29.915,44.89997 -16.4532,23.95836 -43.6611,63.77365 -60.4619,88.47844 -16.8009,24.70478 -30.9023,44.90258 -31.3366,44.88399 -0.4342,-0.0186 -2.7684,-1.6858 -5.1871,-3.70492 z m -30.1546,44.76272 c 0,-1.05338 10.2452,-35.35427 10.6938,-35.8029 0.6083,-0.60829 16.4972,10.62337 17.6368,12.46717 1.1545,1.86811 -2.1659,5.1652 -15.1931,15.0863 -10.254,7.80912 -13.1375,9.61977 -13.1375,8.24943 z m -26.6337,42.91931 c -8.7446,-5.0696 -9.2808,-13.6699 -2.313,-37.10108 2.0998,-7.0613 3.8179,-13.42204 3.8179,-14.13497 0,-1.90609 -17.5989,-1.60761 -34.3003,0.58175 -18.2754,2.39569 -36.0494,6.90925 -48.6345,12.35032 -8.0436,3.47757 -10.0334,3.9398 -10.6004,2.46236 -0.3839,-1.00038 -0.6979,-65.01861 -0.6979,-142.26274 V 343.98651 l 10.3656,-4.7614 c 23.876,-10.96728 44.6784,-16.10614 74.7407,-18.46337 31.5865,-2.47674 71.0323,1.41369 110.5845,10.90664 l 14.1349,3.39254 v 48.94875 48.94876 l -43.8626,65.1068 c -24.1245,35.80874 -45.0627,67.45892 -46.5293,70.33372 -4.3902,8.60554 -22.8867,73.73096 -22.4465,79.03332 0.3536,4.25991 0.7126,4.66098 4.1719,4.66098 2.9801,0 10.2334,-4.94342 34.1056,-23.24417 l 30.3205,-23.24417 21.8061,-32.2652 21.8061,-32.26518 0.3518,37.29095 c 0.1935,20.51003 0.024,38.63251 -0.3768,40.27218 -0.8323,3.40612 0.1557,3.47096 -22.7107,-1.49045 l -13.9407,-3.02476 -28.7783,21.9639 c -29.6667,22.64179 -39.5129,29.18839 -43.8557,29.15889 -1.3821,-0.009 -4.6036,-1.22912 -7.1589,-2.71052 z m -43.9293,-160.55416 c 18.6201,-3.15281 40.7397,-5.02835 59.4979,-5.04489 13.7504,-0.0121 14.8173,-0.19193 16.6479,-2.80542 3.0818,-4.39994 2.5227,-10.59908 -1.1744,-13.02154 -5.0948,-3.33823 -20.6031,-4.41325 -43.3581,-3.00555 -41.2271,2.55047 -57.7963,7.33316 -57.7963,16.68287 0,2.89834 6.6111,9.67532 9.4385,9.67532 1.1512,0 8.6862,-1.11636 16.7445,-2.48079 z m 7.1127,-55.5633 c 19.1147,-3.19356 59.6404,-4.39946 80.2428,-2.38775 16.7612,1.63664 23.4853,0.58608 26.5915,-4.15465 1.4343,-2.18901 1.6051,-3.73633 0.6809,-6.16716 -3.4134,-8.97797 -17.8344,-11.39756 -62.9115,-10.55541 -46.289,0.8648 -68.0409,4.45071 -74.6512,12.30666 -2.7223,3.23521 -2.94,4.17668 -1.753,7.58162 1.5912,4.56433 6.7731,7.1891 12.6777,6.42156 2.225,-0.28922 10.8303,-1.65942 19.1228,-3.04487 z m -0.9761,-53.97849 c 19.9854,-3.55101 25.0459,-3.98068 48.0927,-4.08344 20.7671,-0.0926 29.9154,0.46551 47.2217,2.88084 18.8792,2.63484 21.9061,2.78414 25.1289,1.23951 3.3232,-1.59277 3.6641,-2.33909 3.6641,-8.02144 0,-5.91276 -0.2474,-6.38638 -4.3975,-8.41745 -2.4187,-1.18369 -11.7478,-3.42738 -20.7313,-4.98598 -14.1236,-2.45035 -20.7541,-2.83326 -49.0013,-2.82978 -28.3358,0.003 -34.7499,0.37787 -48.373,2.8234 -19.4391,3.48962 -23.4272,4.56935 -28.584,7.73889 -5.671,3.48557 -5.7652,9.70336 -0.2177,14.37125 2.1261,1.78903 4.0898,3.25279 4.3638,3.25279 0.2739,0 10.549,-1.78587 22.8336,-3.96859 z m -92.0037,230.40487 c -24.2111,-10.15878 -59.406,-14.1158 -112.4484,-12.64272 -41.8428,1.16206 -60.0232,3.49577 -83.5534,10.72529 -4.1527,1.27589 -4.3975,-6.6748 -4.3975,-142.82179 V 333.93151 l 22.9064,-4.39111 c 12.5985,-2.41511 35.9673,-5.67074 51.9307,-7.23475 47.4026,-4.64424 101.1473,2.90674 131.8475,18.52424 l 9.4233,4.79373 v 141.92684 c 0,78.05976 -0.2827,141.79868 -0.6282,141.64203 -0.3455,-0.15663 -7.1317,-3.01363 -15.0804,-6.34885 z m -9.8967,-61.68507 c 1.737,-15.03985 -28.3266,-22.68683 -89.9873,-22.88914 -48.8288,-0.1602 -69.1757,3.94277 -71.8211,14.48281 -2.7496,10.95524 0.2915,12.28512 22.5529,9.86245 32.1487,-3.49868 91.15,-2.19608 105.8081,2.33598 6.9104,2.1366 17.0876,3.67688 22.6159,3.42285 8.9014,-0.40901 10.1408,-1.23462 10.8315,-7.21495 z m -0.025,-55.02765 c 0.9757,-8.39323 -2.8142,-11.31317 -20.7456,-15.98371 -26.806,-6.98208 -65.475,-9.67976 -95.4738,-6.66056 -33.7483,3.39656 -45.3604,8.28351 -45.3604,19.09004 0,7.15226 0.5152,7.52868 10.0516,7.34408 5.5283,-0.10701 20.7941,-1.64995 33.9239,-3.42876 25.8663,-3.50433 56.5283,-2.20632 81.6687,3.45728 8.2925,1.86812 19.6005,3.23512 25.1288,3.03776 8.8289,-0.31518 10.1434,-1.14915 10.8068,-6.85613 z m -0.067,-85.75544 0.6886,-41.99507 -6.9708,-3.60164 c -11.2107,-5.79234 -25.209,-8.76284 -55.3438,-11.7442 -31.4926,-3.11571 -77.601,0.0355 -92.6747,6.33366 l -8.4688,3.53851 v 41.66967 c 0,35.0645 0.6087,41.90327 3.8404,43.14338 2.1123,0.81054 13.1375,-0.0385 24.5006,-1.88668 29.9107,-4.86499 81.4684,-3.67626 104.8418,2.41727 30.9713,8.0743 28.7875,10.86985 29.5867,-37.8749 z" />
      </g>
    </g>
  </g>
</svg>
