<?xml version="1.0" standalone="no"?>
<!DOCTYPE svg PUBLIC "-//W3C//DTD SVG 20010904//EN"
 "http://www.w3.org/TR/2001/REC-SVG-20010904/DTD/svg10.dtd">
<svg version="1.0" xmlns="http://www.w3.org/2000/svg"
 width="350.000000pt" height="350.000000pt" viewBox="0 0 350.000000 350.000000"
 preserveAspectRatio="xMidYMid meet">
<metadata>
Created by potrace 1.14, written by Peter Selinger 2001-2017
</metadata>
<g transform="translate(0.000000,350.000000) scale(0.100000,-0.100000)"
fill="#000000" stroke="none">
<path d="M1560 3199 c-402 -24 -794 -259 -1022 -614 -276 -428 -288 -989 -30
-1423 92 -155 234 -310 381 -415 143 -104 372 -207 423 -192 13 4 56 21 96 37
l72 30 0 524 0 524 -265 0 -265 0 0 195 0 195 265 0 265 0 0 215 0 215 193 -2
192 -3 0 -213 0 -212 268 0 267 0 -2 -192 -3 -193 -262 -3 -263 -2 0 -406 0
-406 38 28 c20 16 74 58 119 94 199 160 452 248 729 253 l119 2 22 45 c40 80
91 252 108 365 32 202 10 453 -55 645 -114 334 -382 636 -696 785 -217 103
-424 140 -694 124z"/>
<path d="M2615 1120 c-223 -26 -402 -109 -610 -285 -239 -203 -504 -338 -778
-397 -123 -26 -393 -32 -490 -10 -32 8 -61 12 -63 9 -8 -7 161 -66 266 -92
133 -34 206 -44 350 -51 328 -16 610 77 840 280 41 36 109 96 150 132 208 183
456 298 701 325 92 10 172 6 299 -16 l35 -6 -35 16 c-153 70 -474 116 -665 95z"/>
</g>
</svg>
